<svg xmlns="http://www.w3.org/2000/svg" width="1200" height="300" viewBox="0 0 1200 300" role="img" aria-label="Mahel Brossier, helphy, infrastructure DevOps et cybersecurite">
  <title>Mahel Brossier (helphy) - Infrastructure, DevOps, Cybersecurite</title>

  <defs>
    <!-- Fond : vert tres profond, presque noir, s eclaircissant vers le haut a droite -->
    <linearGradient id="bg" x1="0" y1="1" x2="1" y2="0">
      <stop offset="0" stop-color="#050d09"/>
      <stop offset="0.55" stop-color="#0b1a12"/>
      <stop offset="1" stop-color="#142c1e"/>
    </linearGradient>

    <!-- Voile sombre a gauche pour garantir la lisibilite du bloc typographique -->
    <linearGradient id="veil" x1="0" y1="0" x2="1" y2="0">
      <stop offset="0" stop-color="#050d09" stop-opacity="0.96"/>
      <stop offset="0.32" stop-color="#050d09" stop-opacity="0.86"/>
      <stop offset="0.60" stop-color="#050d09" stop-opacity="0.32"/>
      <stop offset="1" stop-color="#050d09" stop-opacity="0"/>
    </linearGradient>

    <!-- Degrade des courbes de niveau : sourd a gauche, plus vif a droite -->
    <linearGradient id="line" x1="0" y1="0" x2="1" y2="0">
      <stop offset="0" stop-color="#1b3a2a"/>
      <stop offset="0.5" stop-color="#2d5f43"/>
      <stop offset="1" stop-color="#5c9a6d"/>
    </linearGradient>

    <!-- Degrade du flux d energie qui parcourt deux lignes de niveau -->
    <linearGradient id="flux" x1="0" y1="0" x2="1" y2="0">
      <stop offset="0" stop-color="#7fb069" stop-opacity="0"/>
      <stop offset="0.45" stop-color="#a8dc8e" stop-opacity="1"/>
      <stop offset="1" stop-color="#7fb069" stop-opacity="0"/>
    </linearGradient>

    <!-- Halo diffus, evocation d une source d energie douce -->
    <radialGradient id="halo" cx="0.80" cy="0.40" r="0.52">
      <stop offset="0" stop-color="#2d5f43" stop-opacity="0.40"/>
      <stop offset="1" stop-color="#2d5f43" stop-opacity="0"/>
    </radialGradient>

    <!-- Les courbes s effacent doucement sur les bords gauche et droit -->
    <linearGradient id="fadeH" x1="0" y1="0" x2="1" y2="0">
      <stop offset="0" stop-color="#fff" stop-opacity="0.12"/>
      <stop offset="0.26" stop-color="#fff" stop-opacity="0.85"/>
      <stop offset="0.90" stop-color="#fff" stop-opacity="1"/>
      <stop offset="1" stop-color="#fff" stop-opacity="0.22"/>
    </linearGradient>
    <mask id="mfade">
      <rect width="1200" height="300" fill="url(#fadeH)"/>
    </mask>
  </defs>

  <style>
    .c { fill: none; stroke: url(#line); stroke-linecap: round; }

    /* Ondulation lente : quatre phases decalees, effet de respiration du terrain */
    .c0 { animation: wave 26s ease-in-out infinite; }
    .c1 { animation: wave 26s ease-in-out infinite -6.5s; }
    .c2 { animation: wave 26s ease-in-out infinite -13s; }
    .c3 { animation: wave 26s ease-in-out infinite -19.5s; }
    @keyframes wave {
      0%, 100% { transform: translate3d(0, -4px, 0); }
      50%      { transform: translate3d(0, 4px, 0); }
    }

    /* Flux d energie : un segment lumineux circule le long du relief */
    .flux {
      fill: none;
      stroke: url(#flux);
      stroke-width: 2.4;
      stroke-linecap: round;
      stroke-dasharray: 220 1500;
      animation: run 24s linear infinite -9s;
    }
    .flux2 { animation-duration: 33s; animation-delay: -12s; opacity: 0.65; }
    @keyframes run {
      from { stroke-dashoffset: 1720; }
      to   { stroke-dashoffset: 0; }
    }

    /* Cycle : anneaux concentriques qui pulsent tres lentement */
    .ring { animation: breathe 16s ease-in-out infinite; transform-origin: 1000px 150px; }
    .ring2 { animation-duration: 22s; animation-delay: -5s; }
    @keyframes breathe {
      0%, 100% { opacity: 0.22; transform: scale(0.97); }
      50%      { opacity: 0.46; transform: scale(1.03); }
    }

    .dot { animation: pulse 6s ease-in-out infinite; }
    @keyframes pulse {
      0%, 100% { opacity: 0.5; }
      50%      { opacity: 1; }
    }

    @media (prefers-reduced-motion: reduce) {
      .c0, .c1, .c2, .c3, .flux, .ring, .dot {
        animation: none !important;
        transform: none !important;
      }
      .flux { stroke-dashoffset: 820; }
      .ring { opacity: 0.32; }
    }

    .sans { font-family: ui-sans-serif, system-ui, -apple-system, "Segoe UI", Roboto, "Helvetica Neue", Arial, sans-serif; }
    .mono { font-family: ui-monospace, SFMono-Regular, Menlo, Consolas, "DejaVu Sans Mono", monospace; }
  </style>

  <rect width="1200" height="300" fill="url(#bg)"/>
  <rect width="1200" height="300" fill="url(#halo)"/>

  <!-- Courbes de niveau, generees par superposition de sinusoides dephasees -->
  <g mask="url(#mfade)">
    <path id="l0" class="c c0" d="M-24 -40C-21 -40 -13 -41 -8 -42C-3 -43 3 -43 8 -44C13 -45 19 -46 24 -47C29 -48 35 -49 40 -50C45 -51 51 -52 56 -51C61 -51 67 -51 72 -50C77 -49 83 -47 88 -44C93 -42 99 -39 104 -37C109 -34 115 -32 120 -29C125 -27 131 -25 136 -24C141 -22 147 -21 152 -21C157 -20 163 -20 168 -20C173 -20 179 -20 184 -21C189 -22 195 -23 200 -25C205 -26 211 -29 216 -31C221 -34 227 -37 232 -40C237 -43 243 -46 248 -48C253 -50 259 -52 264 -53C269 -54 275 -54 280 -54C285 -54 291 -53 296 -52C301 -51 307 -50 312 -50C317 -49 323 -49 328 -49C333 -48 339 -48 344 -48C349 -47 355 -47 360 -46C365 -45 371 -44 376 -43C381 -41 387 -40 392 -38C397 -37 403 -36 408 -35C413 -34 419 -34 424 -33C429 -32 435 -31 440 -30C445 -29 451 -27 456 -26C461 -24 467 -22 472 -20C477 -19 483 -17 488 -17C493 -16 499 -17 504 -18C509 -20 515 -23 520 -26C525 -29 531 -33 536 -37C541 -40 547 -44 552 -47C557 -50 563 -53 568 -55C573 -57 579 -58 584 -59C589 -60 595 -61 600 -61C605 -62 611 -62 616 -62C621 -61 627 -60 632 -58C637 -56 643 -53 648 -49C653 -46 659 -41 664 -37C669 -33 675 -29 680 -26C685 -23 691 -20 696 -19C701 -18 707 -18 712 -18C717 -19 723 -20 728 -21C733 -22 739 -24 744 -25C749 -26 755 -26 760 -27C765 -28 771 -28 776 -30C781 -31 787 -33 792 -35C797 -37 803 -39 808 -42C813 -44 819 -47 824 -49C829 -51 835 -53 840 -54C845 -55 851 -55 856 -55C861 -55 867 -55 872 -55C877 -55 883 -56 888 -56C893 -57 899 -57 904 -57C909 -57 915 -57 920 -55C925 -54 931 -51 936 -47C941 -44 947 -39 952 -34C957 -29 963 -24 968 -20C973 -15 979 -12 984 -9C989 -7 995 -6 1000 -6C1005 -5 1011 -6 1016 -7C1021 -8 1027 -10 1032 -12C1037 -14 1043 -17 1048 -20C1053 -23 1059 -26 1064 -30C1069 -34 1075 -39 1080 -44C1085 -49 1091 -55 1096 -59C1101 -64 1107 -68 1112 -70C1117 -73 1123 -74 1128 -73C1133 -73 1139 -71 1144 -69C1149 -67 1155 -63 1160 -60C1165 -58 1171 -55 1176 -52C1181 -50 1187 -48 1192 -47C1197 -45 1203 -44 1208 -42C1213 -40 1221 -37 1224 -36" stroke-width="1.7" opacity="0.440"/>
    <path id="l1" class="c c1" d="M-24 -17C-21 -18 -13 -19 -8 -19C-3 -20 3 -20 8 -21C13 -22 19 -22 24 -23C29 -23 35 -24 40 -24C45 -24 51 -24 56 -23C61 -22 67 -21 72 -19C77 -18 83 -16 88 -14C93 -12 99 -10 104 -9C109 -7 115 -5 120 -4C125 -3 131 -2 136 -1C141 -1 147 -1 152 -1C157 -1 163 -2 168 -3C173 -4 179 -5 184 -6C189 -8 195 -9 200 -11C205 -12 211 -14 216 -15C221 -17 227 -19 232 -21C237 -22 243 -24 248 -25C253 -26 259 -27 264 -28C269 -28 275 -28 280 -28C285 -28 291 -27 296 -26C301 -25 307 -25 312 -24C317 -24 323 -23 328 -23C333 -23 339 -23 344 -22C349 -21 355 -20 360 -19C365 -17 371 -15 376 -13C381 -11 387 -9 392 -7C397 -5 403 -3 408 -2C413 -0 419 0 424 1C429 2 435 2 440 2C445 3 451 3 456 3C461 3 467 4 472 3C477 2 483 1 488 -1C493 -3 499 -6 504 -9C509 -12 515 -16 520 -20C525 -23 531 -27 536 -30C541 -33 547 -36 552 -37C557 -39 563 -40 568 -41C573 -41 579 -41 584 -41C589 -40 595 -39 600 -38C605 -37 611 -35 616 -33C621 -30 627 -28 632 -24C637 -21 643 -17 648 -13C653 -10 659 -6 664 -2C669 1 675 5 680 7C685 10 691 12 696 13C701 14 707 14 712 13C717 13 723 12 728 10C733 9 739 7 744 5C749 3 755 1 760 -1C765 -3 771 -5 776 -8C781 -11 787 -13 792 -16C797 -20 803 -23 808 -26C813 -29 819 -33 824 -36C829 -38 835 -40 840 -41C845 -42 851 -42 856 -42C861 -42 867 -41 872 -40C877 -39 883 -38 888 -37C893 -36 899 -36 904 -34C909 -33 915 -32 920 -29C925 -27 931 -23 936 -19C941 -15 947 -10 952 -6C957 -1 963 4 968 7C973 11 979 14 984 16C989 18 995 18 1000 19C1005 19 1011 19 1016 19C1021 19 1027 18 1032 17C1037 15 1043 14 1048 11C1053 8 1059 4 1064 -1C1069 -5 1075 -11 1080 -17C1085 -22 1091 -29 1096 -34C1101 -39 1107 -44 1112 -47C1117 -51 1123 -53 1128 -54C1133 -55 1139 -55 1144 -54C1149 -53 1155 -51 1160 -48C1165 -46 1171 -43 1176 -40C1181 -36 1187 -33 1192 -29C1197 -25 1203 -20 1208 -16C1213 -12 1221 -6 1224 -3" stroke-width="0.9" opacity="0.315"/>
    <path id="l2" class="c c2" d="M-24 7C-21 7 -13 6 -8 6C-3 5 3 5 8 4C13 3 19 2 24 1C29 0 35 -1 40 -1C45 -2 51 -3 56 -3C61 -3 67 -3 72 -2C77 -0 83 1 88 3C93 5 99 8 104 10C109 12 115 15 120 16C125 18 131 20 136 21C141 22 147 22 152 22C157 22 163 22 168 22C173 21 179 20 184 19C189 18 195 16 200 14C205 12 211 10 216 7C221 5 227 1 232 -1C237 -4 243 -6 248 -8C253 -10 259 -11 264 -11C269 -12 275 -11 280 -10C285 -9 291 -7 296 -6C301 -5 307 -3 312 -2C317 -1 323 -0 328 1C333 1 339 2 344 2C349 3 355 4 360 4C365 5 371 6 376 8C381 9 387 10 392 12C397 13 403 14 408 15C413 16 419 17 424 18C429 19 435 20 440 21C445 22 451 24 456 25C461 27 467 28 472 29C477 30 483 31 488 31C493 31 499 30 504 27C509 25 515 21 520 17C525 13 531 8 536 4C541 -1 547 -6 552 -10C557 -14 563 -17 568 -20C573 -22 579 -24 584 -25C589 -26 595 -26 600 -26C605 -25 611 -25 616 -23C621 -21 627 -18 632 -15C637 -12 643 -7 648 -3C653 2 659 7 664 12C669 17 675 22 680 25C685 28 691 31 696 32C701 34 707 34 712 33C717 32 723 30 728 28C733 26 739 24 744 22C749 20 755 18 760 16C765 15 771 14 776 12C781 11 787 10 792 8C797 7 803 5 808 4C813 2 819 1 824 0C829 -1 835 -2 840 -2C845 -2 851 -2 856 -2C861 -2 867 -2 872 -3C877 -3 883 -4 888 -5C893 -6 899 -7 904 -8C909 -9 915 -10 920 -9C925 -9 931 -8 936 -6C941 -4 947 -0 952 3C957 7 963 11 968 15C973 19 979 23 984 26C989 29 995 32 1000 34C1005 35 1011 36 1016 36C1021 37 1027 36 1032 35C1037 34 1043 32 1048 29C1053 26 1059 23 1064 19C1069 15 1075 9 1080 4C1085 -1 1091 -7 1096 -12C1101 -17 1107 -22 1112 -25C1117 -28 1123 -30 1128 -31C1133 -32 1139 -31 1144 -30C1149 -28 1155 -25 1160 -22C1165 -19 1171 -16 1176 -12C1181 -9 1187 -5 1192 -2C1197 2 1203 5 1208 9C1213 12 1221 17 1224 18" stroke-width="0.9" opacity="0.374"/>
    <path id="l3" class="c c3" d="M-24 22C-21 22 -13 22 -8 21C-3 21 3 20 8 19C13 19 19 18 24 17C29 16 35 16 40 15C45 15 51 14 56 14C61 15 67 15 72 16C77 17 83 19 88 21C93 23 99 25 104 28C109 30 115 33 120 36C125 38 131 41 136 43C141 45 147 46 152 47C157 47 163 47 168 47C173 46 179 46 184 44C189 43 195 41 200 39C205 38 211 35 216 33C221 30 227 27 232 25C237 22 243 20 248 18C253 17 259 16 264 16C269 16 275 16 280 17C285 17 291 18 296 18C301 18 307 17 312 17C317 16 323 15 328 14C333 13 339 12 344 12C349 12 355 12 360 13C365 14 371 15 376 17C381 18 387 20 392 22C397 24 403 26 408 28C413 30 419 32 424 34C429 36 435 38 440 40C445 41 451 43 456 43C461 44 467 45 472 45C477 45 483 45 488 44C493 44 499 43 504 41C509 39 515 37 520 35C525 32 531 29 536 26C541 24 547 21 552 18C557 16 563 14 568 13C573 12 579 11 584 10C589 9 595 9 600 8C605 8 611 8 616 8C621 9 627 10 632 13C637 15 643 19 648 23C653 27 659 33 664 37C669 41 675 45 680 47C685 49 691 50 696 50C701 50 707 47 712 45C717 43 723 40 728 38C733 35 739 32 744 30C749 28 755 25 760 24C765 22 771 20 776 19C781 18 787 17 792 17C797 16 803 17 808 17C813 17 819 18 824 18C829 18 835 18 840 18C845 18 851 17 856 16C861 15 867 14 872 13C877 12 883 10 888 10C893 9 899 8 904 8C909 9 915 10 920 12C925 14 931 18 936 23C941 27 947 34 952 39C957 45 963 52 968 56C973 60 979 64 984 66C989 67 995 67 1000 66C1005 65 1011 63 1016 60C1021 58 1027 55 1032 52C1037 49 1043 47 1048 43C1053 39 1059 35 1064 30C1069 25 1075 19 1080 14C1085 9 1091 4 1096 -0C1101 -4 1107 -8 1112 -10C1117 -12 1123 -13 1128 -14C1133 -14 1139 -14 1144 -13C1149 -12 1155 -10 1160 -8C1165 -6 1171 -3 1176 1C1181 4 1187 8 1192 12C1197 17 1203 21 1208 26C1213 30 1221 36 1224 38" stroke-width="0.9" opacity="0.420"/>
    <path id="l4" class="c c0" d="M-24 39C-21 39 -13 38 -8 37C-3 37 3 36 8 35C13 35 19 33 24 33C29 32 35 31 40 31C45 31 51 31 56 32C61 33 67 34 72 35C77 37 83 39 88 41C93 43 99 45 104 47C109 48 115 50 120 52C125 54 131 56 136 57C141 58 147 59 152 59C157 59 163 59 168 59C173 59 179 59 184 58C189 58 195 57 200 56C205 55 211 54 216 52C221 51 227 48 232 46C237 44 243 41 248 40C253 38 259 37 264 36C269 36 275 36 280 36C285 36 291 37 296 37C301 37 307 37 312 38C317 38 323 38 328 38C333 39 339 39 344 40C349 41 355 42 360 43C365 44 371 44 376 45C381 46 387 46 392 47C397 47 403 48 408 49C413 49 419 50 424 50C429 51 435 51 440 51C445 51 451 52 456 52C461 53 467 53 472 54C477 54 483 55 488 55C493 54 499 53 504 50C509 48 515 44 520 40C525 37 531 32 536 29C541 25 547 22 552 19C557 17 563 15 568 14C573 13 579 12 584 12C589 12 595 12 600 13C605 15 611 17 616 21C621 24 627 29 632 34C637 39 643 45 648 50C653 55 659 60 664 65C669 69 675 73 680 75C685 78 691 80 696 80C701 81 707 80 712 79C717 77 723 74 728 72C733 70 739 66 744 64C749 62 755 61 760 60C765 59 771 59 776 57C781 56 787 55 792 53C797 51 803 48 808 46C813 44 819 41 824 39C829 37 835 36 840 35C845 33 851 32 856 30C861 28 867 25 872 22C877 19 883 16 888 14C893 12 899 10 904 10C909 10 915 11 920 13C925 15 931 19 936 23C941 26 947 31 952 36C957 41 963 47 968 51C973 56 979 61 984 64C989 67 995 70 1000 70C1005 71 1011 70 1016 69C1021 68 1027 66 1032 64C1037 62 1043 60 1048 57C1053 55 1059 52 1064 48C1069 45 1075 40 1080 36C1085 31 1091 26 1096 23C1101 20 1107 17 1112 17C1117 16 1123 17 1128 18C1133 20 1139 22 1144 24C1149 26 1155 29 1160 31C1165 33 1171 35 1176 37C1181 40 1187 42 1192 45C1197 48 1203 50 1208 53C1213 56 1221 59 1224 60" stroke-width="0.9" opacity="0.458"/>
    <path id="l5" class="c c1" d="M-24 54C-21 54 -13 53 -8 52C-3 51 3 51 8 50C13 49 19 49 24 49C29 48 35 48 40 49C45 49 51 50 56 51C61 52 67 53 72 55C77 56 83 58 88 60C93 62 99 64 104 66C109 68 115 69 120 71C125 72 131 74 136 75C141 76 147 76 152 76C157 77 163 77 168 76C173 76 179 76 184 75C189 74 195 73 200 71C205 70 211 68 216 65C221 63 227 60 232 57C237 54 243 51 248 48C253 46 259 44 264 42C269 41 275 40 280 40C285 40 291 40 296 41C301 41 307 42 312 43C317 44 323 45 328 46C333 47 339 48 344 49C349 50 355 52 360 54C365 55 371 57 376 59C381 61 387 62 392 63C397 65 403 65 408 66C413 67 419 68 424 69C429 70 435 72 440 74C445 75 451 78 456 80C461 82 467 84 472 85C477 86 483 87 488 86C493 86 499 84 504 81C509 79 515 75 520 71C525 67 531 61 536 57C541 52 547 47 552 42C557 38 563 34 568 31C573 28 579 27 584 26C589 25 595 26 600 27C605 28 611 30 616 33C621 36 627 40 632 43C637 47 643 52 648 56C653 60 659 65 664 69C669 72 675 76 680 77C685 79 691 80 696 79C701 79 707 77 712 75C717 73 723 71 728 69C733 68 739 67 744 67C749 67 755 68 760 69C765 69 771 70 776 71C781 71 787 71 792 70C797 70 803 68 808 67C813 65 819 63 824 62C829 60 835 58 840 56C845 54 851 52 856 50C861 48 867 45 872 42C877 40 883 37 888 36C893 35 899 34 904 34C909 35 915 36 920 39C925 41 931 45 936 49C941 53 947 58 952 61C957 65 963 69 968 73C973 76 979 78 984 80C989 81 995 82 1000 82C1005 82 1011 81 1016 80C1021 79 1027 77 1032 75C1037 74 1043 72 1048 70C1053 68 1059 66 1064 64C1069 61 1075 58 1080 55C1085 52 1091 48 1096 46C1101 43 1107 39 1112 38C1117 36 1123 35 1128 35C1133 36 1139 37 1144 39C1149 41 1155 43 1160 46C1165 48 1171 50 1176 52C1181 54 1187 56 1192 58C1197 61 1203 63 1208 66C1213 69 1221 73 1224 75" stroke-width="1.7" opacity="0.731"/>
    <path id="l6" class="c c2" d="M-24 69C-21 69 -13 69 -8 69C-3 69 3 69 8 68C13 68 19 68 24 67C29 67 35 67 40 66C45 66 51 66 56 67C61 67 67 68 72 70C77 71 83 73 88 75C93 76 99 79 104 80C109 82 115 84 120 85C125 86 131 87 136 88C141 88 147 88 152 88C157 88 163 88 168 87C173 87 179 86 184 85C189 84 195 83 200 81C205 80 211 78 216 76C221 74 227 72 232 69C237 67 243 65 248 63C253 62 259 60 264 60C269 59 275 58 280 58C285 58 291 58 296 58C301 59 307 59 312 59C317 59 323 59 328 59C333 59 339 59 344 59C349 59 355 60 360 61C365 62 371 63 376 64C381 66 387 68 392 70C397 72 403 74 408 76C413 78 419 80 424 82C429 84 435 86 440 87C445 89 451 91 456 92C461 93 467 94 472 94C477 94 483 93 488 92C493 90 499 88 504 84C509 81 515 77 520 73C525 70 531 65 536 62C541 59 547 56 552 53C557 51 563 50 568 49C573 48 579 48 584 49C589 50 595 51 600 53C605 55 611 58 616 61C621 64 627 69 632 73C637 77 643 83 648 87C653 91 659 96 664 100C669 103 675 106 680 106C685 107 691 107 696 106C701 104 707 101 712 98C717 95 723 91 728 88C733 85 739 82 744 80C749 77 755 75 760 73C765 71 771 69 776 67C781 66 787 63 792 61C797 59 803 57 808 55C813 54 819 52 824 51C829 50 835 50 840 50C845 49 851 50 856 50C861 50 867 50 872 50C877 49 883 48 888 48C893 47 899 46 904 46C909 46 915 46 920 48C925 50 931 52 936 56C941 60 947 65 952 70C957 75 963 81 968 85C973 90 979 95 984 99C989 102 995 105 1000 107C1005 109 1011 110 1016 110C1021 110 1027 110 1032 109C1037 107 1043 105 1048 103C1053 100 1059 96 1064 92C1069 88 1075 83 1080 79C1085 74 1091 69 1096 65C1101 61 1107 57 1112 54C1117 52 1123 50 1128 49C1133 49 1139 49 1144 50C1149 51 1155 53 1160 55C1165 56 1171 58 1176 60C1181 62 1187 64 1192 66C1197 68 1203 70 1208 73C1213 75 1221 78 1224 80" stroke-width="0.9" opacity="0.519"/>
    <path id="l7" class="c c3" d="M-24 81C-21 81 -13 81 -8 80C-3 80 3 79 8 79C13 78 19 77 24 77C29 76 35 76 40 75C45 75 51 75 56 76C61 76 67 77 72 78C77 80 83 82 88 84C93 86 99 89 104 91C109 93 115 95 120 97C125 99 131 100 136 101C141 102 147 103 152 103C157 103 163 102 168 101C173 100 179 99 184 97C189 95 195 93 200 91C205 88 211 85 216 82C221 79 227 76 232 74C237 71 243 69 248 68C253 66 259 66 264 66C269 66 275 67 280 68C285 69 291 70 296 71C301 73 307 74 312 74C317 75 323 76 328 76C333 77 339 77 344 77C349 77 355 78 360 79C365 79 371 81 376 82C381 83 387 84 392 86C397 87 403 88 408 90C413 91 419 93 424 94C429 96 435 97 440 99C445 101 451 103 456 104C461 106 467 108 472 108C477 109 483 109 488 107C493 106 499 104 504 101C509 98 515 93 520 89C525 85 531 80 536 76C541 72 547 67 552 64C557 61 563 59 568 57C573 56 579 55 584 55C589 55 595 56 600 58C605 60 611 62 616 65C621 68 627 72 632 77C637 81 643 85 648 90C653 94 659 98 664 101C669 104 675 106 680 107C685 108 691 107 696 106C701 105 707 102 712 100C717 97 723 94 728 92C733 89 739 87 744 86C749 85 755 84 760 83C765 83 771 82 776 82C781 82 787 81 792 80C797 80 803 79 808 78C813 77 819 76 824 76C829 75 835 74 840 74C845 73 851 73 856 72C861 71 867 70 872 69C877 68 883 67 888 66C893 65 899 64 904 64C909 65 915 66 920 68C925 71 931 75 936 79C941 84 947 90 952 95C957 100 963 106 968 111C973 115 979 119 984 122C989 124 995 126 1000 126C1005 126 1011 124 1016 122C1021 120 1027 117 1032 113C1037 109 1043 104 1048 99C1053 94 1059 87 1064 81C1069 75 1075 68 1080 63C1085 58 1091 52 1096 49C1101 45 1107 43 1112 42C1117 42 1123 43 1128 45C1133 47 1139 50 1144 54C1149 57 1155 61 1160 64C1165 67 1171 70 1176 73C1181 75 1187 77 1192 79C1197 81 1203 83 1208 85C1213 87 1221 90 1224 91" stroke-width="0.9" opacity="0.542"/>
    <path id="l8" class="c c0" d="M-24 90C-21 90 -13 89 -8 89C-3 89 3 88 8 88C13 87 19 87 24 86C29 85 35 85 40 84C45 84 51 84 56 85C61 85 67 86 72 88C77 89 83 91 88 94C93 96 99 98 104 100C109 103 115 105 120 107C125 108 131 110 136 111C141 112 147 112 152 112C157 112 163 112 168 111C173 110 179 108 184 107C189 105 195 103 200 100C205 98 211 95 216 93C221 91 227 89 232 87C237 85 243 83 248 83C253 82 259 81 264 81C269 81 275 82 280 83C285 83 291 84 296 85C301 86 307 86 312 87C317 87 323 86 328 86C333 86 339 86 344 86C349 86 355 86 360 86C365 87 371 88 376 90C381 91 387 93 392 95C397 97 403 99 408 100C413 102 419 103 424 104C429 105 435 106 440 107C445 108 451 109 456 109C461 110 467 110 472 110C477 109 483 108 488 106C493 104 499 101 504 98C509 95 515 91 520 88C525 85 531 81 536 79C541 76 547 74 552 73C557 72 563 72 568 72C573 72 579 72 584 73C589 74 595 74 600 76C605 77 611 79 616 81C621 84 627 87 632 90C637 94 643 98 648 102C653 106 659 111 664 114C669 117 675 120 680 122C685 124 691 125 696 125C701 125 707 124 712 123C717 121 723 119 728 116C733 114 739 111 744 108C749 105 755 103 760 100C765 97 771 94 776 92C781 89 787 87 792 85C797 83 803 81 808 79C813 77 819 76 824 75C829 74 835 74 840 73C845 73 851 73 856 73C861 73 867 72 872 72C877 71 883 70 888 69C893 68 899 66 904 66C909 66 915 67 920 69C925 71 931 75 936 79C941 84 947 90 952 96C957 102 963 108 968 113C973 119 979 123 984 126C989 130 995 132 1000 132C1005 133 1011 133 1016 132C1021 131 1027 129 1032 127C1037 124 1043 120 1048 116C1053 112 1059 106 1064 101C1069 95 1075 89 1080 83C1085 78 1091 73 1096 70C1101 67 1107 65 1112 65C1117 65 1123 66 1128 68C1133 70 1139 73 1144 76C1149 78 1155 81 1160 83C1165 86 1171 88 1176 89C1181 91 1187 92 1192 93C1197 94 1203 96 1208 97C1213 98 1221 100 1224 101" stroke-width="0.9" opacity="0.561"/>
    <path id="l9" class="c c1" d="M-24 99C-21 99 -13 98 -8 97C-3 97 3 96 8 95C13 95 19 94 24 94C29 93 35 93 40 93C45 93 51 93 56 93C61 94 67 95 72 96C77 97 83 99 88 100C93 102 99 104 104 106C109 108 115 110 120 111C125 113 131 114 136 114C141 115 147 115 152 116C157 116 163 115 168 115C173 114 179 114 184 113C189 112 195 111 200 109C205 108 211 106 216 104C221 103 227 101 232 99C237 97 243 95 248 94C253 93 259 92 264 92C269 91 275 92 280 92C285 92 291 93 296 94C301 95 307 95 312 96C317 97 323 97 328 97C333 98 339 98 344 99C349 99 355 100 360 101C365 102 371 103 376 104C381 105 387 106 392 107C397 108 403 109 408 110C413 111 419 111 424 112C429 112 435 113 440 113C445 113 451 114 456 114C461 114 467 114 472 114C477 113 483 113 488 112C493 110 499 109 504 106C509 104 515 101 520 98C525 95 531 91 536 89C541 86 547 83 552 82C557 80 563 79 568 79C573 79 579 79 584 80C589 81 595 83 600 85C605 87 611 89 616 92C621 95 627 98 632 102C637 105 643 109 648 113C653 116 659 120 664 124C669 127 675 129 680 131C685 132 691 133 696 133C701 132 707 130 712 128C717 126 723 123 728 121C733 118 739 115 744 112C749 110 755 107 760 105C765 102 771 100 776 98C781 95 787 93 792 91C797 89 803 87 808 85C813 83 819 81 824 80C829 79 835 78 840 78C845 78 851 78 856 78C861 78 867 79 872 80C877 80 883 81 888 82C893 82 899 83 904 85C909 86 915 88 920 91C925 94 931 98 936 102C941 106 947 111 952 116C957 120 963 125 968 129C973 133 979 137 984 139C989 141 995 143 1000 143C1005 144 1011 143 1016 142C1021 140 1027 138 1032 135C1037 132 1043 128 1048 124C1053 120 1059 115 1064 110C1069 104 1075 98 1080 93C1085 87 1091 81 1096 77C1101 72 1107 68 1112 66C1117 64 1123 63 1128 63C1133 63 1139 65 1144 67C1149 69 1155 72 1160 75C1165 78 1171 82 1176 85C1181 88 1187 91 1192 94C1197 97 1203 100 1208 103C1213 105 1221 109 1224 110" stroke-width="0.9" opacity="0.577"/>
    <path id="l10" class="c c2" d="M-24 105C-21 105 -13 105 -8 104C-3 104 3 103 8 103C13 102 19 101 24 101C29 100 35 100 40 100C45 100 51 101 56 102C61 103 67 104 72 106C77 108 83 110 88 112C93 114 99 117 104 119C109 122 115 124 120 126C125 128 131 129 136 130C141 131 147 131 152 131C157 130 163 129 168 128C173 127 179 126 184 124C189 123 195 120 200 118C205 116 211 112 216 110C221 107 227 103 232 101C237 98 243 96 248 94C253 93 259 92 264 92C269 92 275 93 280 94C285 94 291 95 296 96C301 97 307 97 312 98C317 99 323 99 328 100C333 101 339 102 344 102C349 103 355 105 360 106C365 107 371 108 376 109C381 110 387 112 392 113C397 115 403 116 408 118C413 120 419 122 424 123C429 125 435 127 440 128C445 130 451 131 456 133C461 134 467 135 472 135C477 136 483 136 488 134C493 133 499 131 504 127C509 124 515 119 520 114C525 110 531 104 536 100C541 96 547 92 552 89C557 87 563 85 568 84C573 83 579 82 584 82C589 82 595 83 600 84C605 85 611 87 616 90C621 93 627 97 632 101C637 105 643 110 648 114C653 118 659 122 664 124C669 127 675 129 680 129C685 130 691 130 696 129C701 129 707 127 712 125C717 124 723 121 728 120C733 118 739 116 744 115C749 113 755 112 760 112C765 111 771 112 776 112C781 112 787 112 792 112C797 112 803 111 808 110C813 110 819 108 824 108C829 107 835 107 840 106C845 106 851 106 856 105C861 105 867 104 872 102C877 101 883 98 888 96C893 95 899 92 904 92C909 92 915 93 920 95C925 97 931 101 936 105C941 109 947 114 952 118C957 122 963 126 968 129C973 132 979 135 984 136C989 138 995 139 1000 138C1005 138 1011 138 1016 136C1021 134 1027 131 1032 127C1037 124 1043 119 1048 115C1053 110 1059 105 1064 100C1069 96 1075 91 1080 87C1085 83 1091 80 1096 78C1101 75 1107 74 1112 74C1117 75 1123 77 1128 80C1133 83 1139 88 1144 92C1149 97 1155 103 1160 107C1165 111 1171 114 1176 117C1181 120 1187 121 1192 123C1197 124 1203 125 1208 127C1213 128 1221 130 1224 131" stroke-width="1.7" opacity="0.800"/>
    <path id="l11" class="c c3" d="M-24 113C-21 113 -13 112 -8 112C-3 111 3 111 8 110C13 110 19 109 24 109C29 109 35 109 40 110C45 111 51 112 56 113C61 114 67 116 72 118C77 120 83 123 88 125C93 127 99 129 104 131C109 132 115 134 120 135C125 135 131 136 136 135C141 135 147 134 152 133C157 132 163 130 168 129C173 127 179 125 184 123C189 121 195 119 200 117C205 115 211 113 216 111C221 109 227 107 232 105C237 104 243 102 248 101C253 101 259 100 264 101C269 101 275 102 280 103C285 104 291 106 296 107C301 108 307 109 312 110C317 111 323 111 328 112C333 113 339 114 344 115C349 117 355 119 360 121C365 123 371 126 376 128C381 130 387 132 392 134C397 135 403 137 408 137C413 138 419 138 424 138C429 139 435 139 440 138C445 138 451 138 456 137C461 136 467 135 472 133C477 131 483 129 488 126C493 122 499 118 504 115C509 111 515 107 520 103C525 100 531 96 536 94C541 91 547 89 552 88C557 87 563 86 568 87C573 87 579 88 584 89C589 91 595 93 600 96C605 98 611 101 616 105C621 108 627 112 632 117C637 121 643 126 648 130C653 134 659 139 664 143C669 147 675 150 680 152C685 154 691 155 696 155C701 155 707 153 712 151C717 149 723 146 728 143C733 140 739 137 744 134C749 131 755 128 760 125C765 122 771 119 776 116C781 112 787 109 792 105C797 102 803 98 808 96C813 93 819 91 824 90C829 89 835 89 840 89C845 90 851 91 856 92C861 93 867 93 872 94C877 95 883 95 888 95C893 96 899 97 904 98C909 100 915 103 920 107C925 110 931 115 936 120C941 125 947 130 952 135C957 140 963 145 968 149C973 153 979 156 984 158C989 160 995 162 1000 162C1005 163 1011 163 1016 161C1021 160 1027 157 1032 153C1037 150 1043 145 1048 139C1053 134 1059 127 1064 120C1069 113 1075 106 1080 99C1085 93 1091 86 1096 82C1101 77 1107 73 1112 71C1117 69 1123 69 1128 71C1133 72 1139 76 1144 79C1149 83 1155 88 1160 93C1165 97 1171 102 1176 106C1181 111 1187 114 1192 118C1197 121 1203 124 1208 127C1213 130 1221 134 1224 135" stroke-width="0.9" opacity="0.596"/>
    <path id="l12" class="c c0" d="M-24 121C-21 121 -13 120 -8 119C-3 118 3 118 8 117C13 116 19 116 24 115C29 115 35 115 40 115C45 115 51 116 56 117C61 118 67 120 72 121C77 123 83 125 88 127C93 129 99 132 104 134C109 136 115 137 120 139C125 140 131 141 136 141C141 141 147 141 152 141C157 140 163 139 168 138C173 137 179 135 184 134C189 132 195 130 200 129C205 127 211 125 216 123C221 121 227 119 232 118C237 116 243 115 248 115C253 114 259 115 264 115C269 116 275 117 280 119C285 120 291 122 296 123C301 124 307 125 312 126C317 127 323 127 328 127C333 127 339 127 344 127C349 128 355 128 360 129C365 129 371 130 376 131C381 131 387 132 392 132C397 133 403 133 408 133C413 133 419 132 424 133C429 133 435 133 440 134C445 134 451 135 456 136C461 136 467 137 472 136C477 136 483 135 488 133C493 131 499 128 504 125C509 122 515 119 520 116C525 113 531 109 536 107C541 105 547 103 552 101C557 100 563 100 568 100C573 100 579 100 584 101C589 102 595 104 600 107C605 109 611 112 616 115C621 119 627 123 632 127C637 131 643 135 648 139C653 143 659 147 664 150C669 153 675 156 680 157C685 159 691 159 696 159C701 158 707 157 712 155C717 154 723 151 728 149C733 147 739 145 744 143C749 141 755 140 760 138C765 136 771 134 776 132C781 130 787 127 792 125C797 122 803 118 808 115C813 112 819 109 824 107C829 104 835 103 840 101C845 100 851 99 856 98C861 97 867 96 872 96C877 95 883 94 888 94C893 94 899 94 904 96C909 97 915 100 920 104C925 108 931 114 936 120C941 125 947 132 952 138C957 143 963 149 968 152C973 156 979 159 984 161C989 163 995 163 1000 163C1005 163 1011 162 1016 160C1021 158 1027 156 1032 153C1037 150 1043 145 1048 141C1053 136 1059 130 1064 125C1069 120 1075 114 1080 109C1085 105 1091 101 1096 99C1101 96 1107 95 1112 95C1117 96 1123 97 1128 100C1133 102 1139 106 1144 109C1149 113 1155 117 1160 120C1165 124 1171 127 1176 130C1181 133 1187 135 1192 137C1197 139 1203 140 1208 142C1213 143 1221 143 1224 144" stroke-width="0.9" opacity="0.600"/>
    <path id="l13" class="c c1" d="M-24 131C-21 130 -13 130 -8 129C-3 129 3 129 8 128C13 127 19 127 24 126C29 126 35 125 40 125C45 125 51 125 56 126C61 127 67 129 72 130C77 132 83 134 88 136C93 138 99 141 104 143C109 145 115 146 120 147C125 149 131 149 136 150C141 150 147 150 152 150C157 149 163 149 168 148C173 147 179 146 184 145C189 143 195 142 200 140C205 138 211 135 216 133C221 131 227 129 232 127C237 125 243 123 248 123C253 122 259 121 264 122C269 122 275 123 280 124C285 125 291 127 296 128C301 129 307 130 312 131C317 132 323 133 328 134C333 135 339 135 344 136C349 136 355 137 360 138C365 138 371 139 376 140C381 141 387 142 392 142C397 143 403 143 408 144C413 144 419 145 424 145C429 146 435 146 440 147C445 147 451 148 456 148C461 148 467 148 472 147C477 146 483 144 488 142C493 140 499 137 504 134C509 131 515 127 520 124C525 120 531 117 536 114C541 112 547 109 552 108C557 107 563 106 568 106C573 106 579 106 584 107C589 109 595 110 600 112C605 115 611 118 616 121C621 125 627 129 632 134C637 139 643 144 648 149C653 153 659 158 664 161C669 165 675 167 680 168C685 169 691 169 696 168C701 166 707 164 712 161C717 159 723 156 728 154C733 151 739 149 744 147C749 145 755 144 760 142C765 140 771 139 776 137C781 135 787 132 792 130C797 128 803 126 808 124C813 122 819 120 824 119C829 118 835 118 840 117C845 117 851 118 856 117C861 117 867 117 872 117C877 117 883 117 888 116C893 116 899 116 904 117C909 117 915 119 920 121C925 123 931 126 936 130C941 134 947 138 952 142C957 147 963 151 968 154C973 158 979 161 984 162C989 164 995 165 1000 165C1005 165 1011 164 1016 162C1021 160 1027 158 1032 155C1037 152 1043 148 1048 143C1053 139 1059 134 1064 129C1069 124 1075 119 1080 115C1085 110 1091 106 1096 104C1101 101 1107 100 1112 100C1117 100 1123 102 1128 104C1133 106 1139 109 1144 112C1149 116 1155 119 1160 123C1165 126 1171 130 1176 133C1181 136 1187 139 1192 142C1197 145 1203 148 1208 151C1213 153 1221 157 1224 158" stroke-width="0.9" opacity="0.600"/>
    <path id="l14" class="c c2" d="M-24 140C-21 140 -13 140 -8 139C-3 139 3 138 8 138C13 137 19 137 24 136C29 136 35 135 40 135C45 136 51 136 56 137C61 138 67 140 72 142C77 143 83 146 88 148C93 150 99 153 104 154C109 156 115 158 120 159C125 160 131 160 136 161C141 161 147 161 152 161C157 160 163 160 168 159C173 158 179 157 184 155C189 154 195 152 200 150C205 147 211 144 216 142C221 139 227 136 232 134C237 132 243 129 248 128C253 127 259 126 264 126C269 126 275 127 280 128C285 129 291 131 296 132C301 133 307 134 312 135C317 136 323 137 328 138C333 139 339 140 344 142C349 143 355 145 360 147C365 149 371 151 376 153C381 155 387 158 392 159C397 161 403 162 408 163C413 164 419 164 424 164C429 164 435 164 440 164C445 163 451 163 456 162C461 162 467 161 472 160C477 158 483 156 488 154C493 151 499 148 504 144C509 141 515 136 520 132C525 128 531 124 536 121C541 118 547 116 552 115C557 113 563 113 568 114C573 114 579 116 584 118C589 120 595 123 600 126C605 128 611 132 616 136C621 139 627 143 632 147C637 151 643 156 648 159C653 163 659 167 664 170C669 172 675 174 680 175C685 176 691 176 696 176C701 175 707 173 712 171C717 169 723 166 728 164C733 161 739 159 744 156C749 154 755 151 760 148C765 146 771 143 776 141C781 138 787 136 792 133C797 131 803 128 808 126C813 124 819 123 824 121C829 120 835 119 840 119C845 118 851 118 856 118C861 118 867 119 872 119C877 120 883 121 888 123C893 125 899 127 904 131C909 134 915 138 920 143C925 147 931 153 936 158C941 163 947 168 952 172C957 176 963 179 968 181C973 184 979 185 984 185C989 185 995 183 1000 182C1005 180 1011 177 1016 174C1021 171 1027 167 1032 163C1037 159 1043 153 1048 148C1053 143 1059 137 1064 131C1069 126 1075 120 1080 116C1085 112 1091 108 1096 106C1101 105 1107 105 1112 106C1117 107 1123 110 1128 113C1133 116 1139 120 1144 124C1149 128 1155 132 1160 135C1165 138 1171 141 1176 143C1181 146 1187 148 1192 150C1197 153 1203 155 1208 157C1213 160 1221 163 1224 164" stroke-width="0.9" opacity="0.596"/>
    <path id="l15" class="c c3" d="M-24 152C-21 152 -13 152 -8 152C-3 152 3 151 8 151C13 151 19 151 24 151C29 151 35 152 40 152C45 153 51 154 56 155C61 156 67 157 72 159C77 160 83 162 88 164C93 165 99 166 104 167C109 168 115 169 120 169C125 169 131 169 136 169C141 168 147 167 152 166C157 165 163 164 168 162C173 161 179 159 184 157C189 155 195 153 200 151C205 149 211 147 216 145C221 144 227 142 232 141C237 141 243 141 248 141C253 142 259 143 264 144C269 146 275 148 280 149C285 151 291 152 296 154C301 155 307 156 312 157C317 157 323 158 328 158C333 159 339 159 344 160C349 161 355 162 360 163C365 164 371 165 376 165C381 166 387 167 392 167C397 167 403 167 408 167C413 167 419 167 424 167C429 167 435 167 440 167C445 168 451 168 456 168C461 168 467 168 472 167C477 166 483 164 488 161C493 159 499 155 504 151C509 148 515 143 520 140C525 136 531 133 536 131C541 129 547 127 552 127C557 127 563 128 568 130C573 131 579 133 584 136C589 138 595 141 600 145C605 148 611 151 616 155C621 159 627 163 632 167C637 172 643 177 648 180C653 184 659 188 664 190C669 192 675 193 680 193C685 192 691 190 696 187C701 184 707 180 712 176C717 172 723 167 728 163C733 159 739 156 744 153C749 150 755 148 760 146C765 144 771 143 776 141C781 140 787 138 792 137C797 136 803 134 808 134C813 133 819 132 824 133C829 133 835 134 840 135C845 136 851 138 856 140C861 142 867 143 872 145C877 146 883 148 888 149C893 150 899 151 904 153C909 155 915 157 920 160C925 162 931 166 936 170C941 173 947 178 952 181C957 185 963 188 968 190C973 192 979 193 984 193C989 193 995 192 1000 190C1005 188 1011 184 1016 181C1021 177 1027 173 1032 169C1037 164 1043 159 1048 154C1053 149 1059 144 1064 139C1069 135 1075 130 1080 126C1085 122 1091 119 1096 117C1101 115 1107 115 1112 116C1117 116 1123 118 1128 121C1133 124 1139 128 1144 132C1149 136 1155 141 1160 145C1165 149 1171 154 1176 158C1181 161 1187 165 1192 168C1197 171 1203 174 1208 177C1213 179 1221 182 1224 183" stroke-width="1.7" opacity="0.800"/>
    <path id="l16" class="c c0" d="M-24 163C-21 163 -13 162 -8 162C-3 161 3 161 8 160C13 160 19 159 24 159C29 159 35 159 40 159C45 160 51 161 56 162C61 163 67 165 72 167C77 169 83 172 88 174C93 177 99 179 104 181C109 182 115 184 120 185C125 185 131 186 136 186C141 186 147 185 152 185C157 184 163 183 168 182C173 181 179 180 184 179C189 177 195 175 200 173C205 171 211 169 216 167C221 165 227 163 232 162C237 161 243 160 248 160C253 159 259 160 264 161C269 161 275 163 280 163C285 164 291 165 296 166C301 166 307 166 312 166C317 166 323 166 328 165C333 165 339 165 344 166C349 166 355 167 360 167C365 168 371 169 376 170C381 171 387 172 392 173C397 173 403 174 408 175C413 175 419 176 424 176C429 177 435 178 440 179C445 180 451 181 456 182C461 182 467 182 472 182C477 181 483 179 488 177C493 174 499 171 504 167C509 164 515 160 520 157C525 154 531 150 536 148C541 146 547 145 552 145C557 145 563 146 568 147C573 148 579 150 584 152C589 154 595 157 600 160C605 163 611 167 616 171C621 175 627 179 632 184C637 188 643 193 648 196C653 200 659 203 664 205C669 206 675 207 680 206C685 205 691 202 696 200C701 197 707 193 712 189C717 186 723 182 728 179C733 176 739 173 744 171C749 168 755 166 760 164C765 162 771 159 776 157C781 155 787 153 792 151C797 149 803 147 808 146C813 145 819 145 824 144C829 144 835 145 840 145C845 145 851 145 856 145C861 145 867 145 872 145C877 145 883 144 888 145C893 146 899 147 904 149C909 151 915 155 920 159C925 164 931 170 936 175C941 180 947 187 952 192C957 197 963 201 968 205C973 208 979 210 984 212C989 213 995 214 1000 213C1005 213 1011 212 1016 210C1021 208 1027 205 1032 202C1037 198 1043 193 1048 188C1053 183 1059 176 1064 170C1069 164 1075 158 1080 153C1085 147 1091 143 1096 140C1101 137 1107 135 1112 135C1117 135 1123 137 1128 139C1133 140 1139 144 1144 146C1149 149 1155 152 1160 155C1165 157 1171 160 1176 162C1181 164 1187 166 1192 168C1197 170 1203 173 1208 174C1213 176 1221 179 1224 180" stroke-width="0.9" opacity="0.577"/>
    <path id="l17" class="c c1" d="M-24 182C-21 182 -13 182 -8 182C-3 181 3 181 8 180C13 180 19 179 24 179C29 178 35 178 40 178C45 178 51 178 56 179C61 180 67 181 72 183C77 184 83 186 88 188C93 190 99 191 104 193C109 194 115 195 120 196C125 197 131 197 136 197C141 198 147 198 152 197C157 197 163 197 168 196C173 195 179 194 184 193C189 191 195 189 200 187C205 185 211 183 216 181C221 179 227 176 232 175C237 173 243 172 248 172C253 172 259 172 264 173C269 174 275 175 280 176C285 178 291 179 296 180C301 181 307 181 312 182C317 182 323 182 328 183C333 183 339 183 344 184C349 184 355 185 360 186C365 187 371 188 376 189C381 189 387 190 392 191C397 191 403 192 408 192C413 193 419 193 424 194C429 195 435 196 440 197C445 198 451 200 456 201C461 201 467 202 472 202C477 202 483 201 488 199C493 196 499 193 504 190C509 186 515 181 520 178C525 174 531 170 536 167C541 164 547 162 552 161C557 160 563 160 568 160C573 160 579 162 584 163C589 165 595 166 600 169C605 171 611 174 616 177C621 181 627 184 632 188C637 192 643 197 648 200C653 203 659 207 664 209C669 210 675 211 680 211C685 210 691 208 696 206C701 204 707 200 712 198C717 195 723 192 728 190C733 188 739 187 744 186C749 186 755 186 760 186C765 185 771 186 776 185C781 185 787 184 792 183C797 182 803 180 808 179C813 178 819 177 824 176C829 175 835 174 840 174C845 173 851 172 856 172C861 171 867 169 872 168C877 167 883 166 888 165C893 165 899 164 904 166C909 167 915 169 920 173C925 176 931 181 936 186C941 191 947 197 952 202C957 206 963 211 968 214C973 217 979 218 984 219C989 219 995 218 1000 216C1005 214 1011 212 1016 209C1021 206 1027 203 1032 200C1037 196 1043 193 1048 189C1053 185 1059 181 1064 177C1069 173 1075 169 1080 165C1085 162 1091 159 1096 158C1101 156 1107 156 1112 157C1117 158 1123 160 1128 163C1133 166 1139 170 1144 173C1149 175 1155 179 1160 181C1165 183 1171 184 1176 185C1181 187 1187 187 1192 187C1197 188 1203 189 1208 190C1213 190 1221 192 1224 193" stroke-width="0.9" opacity="0.561"/>
    <path id="l18" class="c c2" d="M-24 200C-21 200 -13 200 -8 199C-3 199 3 199 8 199C13 199 19 198 24 198C29 198 35 198 40 199C45 199 51 200 56 201C61 202 67 204 72 205C77 207 83 209 88 210C93 211 99 213 104 214C109 215 115 215 120 216C125 216 131 216 136 215C141 215 147 214 152 213C157 212 163 211 168 210C173 209 179 207 184 205C189 203 195 201 200 199C205 196 211 194 216 192C221 190 227 188 232 187C237 186 243 186 248 186C253 186 259 187 264 189C269 190 275 192 280 193C285 195 291 197 296 198C301 199 307 200 312 202C317 203 323 204 328 205C333 206 339 207 344 208C349 210 355 211 360 213C365 214 371 216 376 216C381 217 387 218 392 218C397 218 403 218 408 217C413 217 419 216 424 215C429 215 435 214 440 214C445 213 451 213 456 212C461 211 467 210 472 208C477 207 483 204 488 201C493 199 499 195 504 191C509 188 515 184 520 181C525 179 531 177 536 176C541 175 547 175 552 176C557 177 563 179 568 181C573 183 579 186 584 189C589 192 595 195 600 198C605 201 611 204 616 208C621 211 627 215 632 218C637 222 643 226 648 228C653 231 659 234 664 234C669 235 675 235 680 234C685 232 691 229 696 226C701 223 707 218 712 215C717 211 723 207 728 204C733 202 739 200 744 198C749 196 755 196 760 195C765 194 771 193 776 192C781 191 787 189 792 188C797 187 803 185 808 184C813 183 819 182 824 182C829 182 835 183 840 184C845 185 851 186 856 187C861 188 867 189 872 189C877 190 883 190 888 191C893 192 899 193 904 195C909 198 915 201 920 204C925 208 931 213 936 218C941 223 947 229 952 233C957 237 963 241 968 243C973 244 979 245 984 244C989 243 995 241 1000 238C1005 235 1011 230 1016 226C1021 221 1027 216 1032 211C1037 206 1043 201 1048 196C1053 191 1059 185 1064 180C1069 175 1075 169 1080 166C1085 162 1091 159 1096 157C1101 156 1107 156 1112 158C1117 160 1123 164 1128 169C1133 173 1139 179 1144 185C1149 191 1155 197 1160 202C1165 207 1171 212 1176 215C1181 219 1187 222 1192 224C1197 226 1203 228 1208 229C1213 230 1221 231 1224 232" stroke-width="0.9" opacity="0.542"/>
    <path id="l19" class="c c3" d="M-24 216C-21 216 -13 215 -8 215C-3 214 3 214 8 213C13 213 19 212 24 212C29 212 35 213 40 213C45 214 51 216 56 217C61 219 67 221 72 223C77 226 83 228 88 231C93 233 99 235 104 237C109 239 115 241 120 242C125 243 131 243 136 243C141 243 147 242 152 241C157 240 163 238 168 236C173 234 179 232 184 230C189 228 195 225 200 222C205 220 211 216 216 214C221 211 227 208 232 206C237 204 243 202 248 201C253 201 259 201 264 202C269 202 275 204 280 205C285 207 291 208 296 209C301 211 307 212 312 213C317 214 323 216 328 217C333 219 339 221 344 223C349 225 355 228 360 230C365 232 371 234 376 236C381 238 387 239 392 241C397 242 403 243 408 244C413 245 419 246 424 246C429 246 435 246 440 245C445 245 451 244 456 242C461 241 467 239 472 237C477 234 483 231 488 228C493 224 499 220 504 215C509 211 515 206 520 202C525 197 531 193 536 191C541 188 547 187 552 187C557 187 563 188 568 190C573 191 579 194 584 196C589 199 595 202 600 206C605 209 611 213 616 217C621 222 627 227 632 232C637 237 643 242 648 246C653 250 659 253 664 255C669 257 675 257 680 257C685 257 691 255 696 253C701 251 707 248 712 246C717 243 723 240 728 238C733 235 739 232 744 230C749 228 755 225 760 223C765 221 771 220 776 218C781 216 787 214 792 212C797 210 803 208 808 206C813 204 819 202 824 201C829 199 835 199 840 198C845 198 851 198 856 198C861 198 867 198 872 198C877 198 883 198 888 199C893 199 899 200 904 203C909 205 915 209 920 213C925 218 931 225 936 230C941 236 947 242 952 247C957 252 963 256 968 259C973 262 979 264 984 265C989 265 995 265 1000 264C1005 264 1011 262 1016 259C1021 257 1027 253 1032 249C1037 244 1043 239 1048 233C1053 228 1059 221 1064 215C1069 210 1075 204 1080 199C1085 194 1091 190 1096 187C1101 184 1107 182 1112 181C1117 181 1123 182 1128 184C1133 186 1139 189 1144 192C1149 196 1155 200 1160 203C1165 206 1171 210 1176 212C1181 215 1187 218 1192 220C1197 223 1203 226 1208 229C1213 232 1221 238 1224 239" stroke-width="0.9" opacity="0.519"/>
    <path id="l20" class="c c0" d="M-24 237C-21 237 -13 238 -8 238C-3 238 3 238 8 238C13 238 19 238 24 239C29 239 35 240 40 241C45 242 51 243 56 245C61 246 67 248 72 250C77 252 83 254 88 255C93 257 99 259 104 260C109 260 115 261 120 261C125 261 131 260 136 259C141 258 147 257 152 255C157 254 163 252 168 250C173 249 179 247 184 245C189 243 195 241 200 239C205 237 211 235 216 234C221 232 227 230 232 229C237 228 243 228 248 228C253 228 259 228 264 229C269 230 275 231 280 232C285 234 291 235 296 237C301 238 307 239 312 240C317 241 323 242 328 243C333 245 339 246 344 247C349 249 355 251 360 253C365 254 371 256 376 258C381 260 387 261 392 262C397 264 403 264 408 265C413 265 419 265 424 265C429 265 435 264 440 264C445 263 451 262 456 260C461 258 467 256 472 253C477 250 483 247 488 243C493 239 499 234 504 231C509 227 515 222 520 219C525 216 531 214 536 213C541 211 547 211 552 212C557 213 563 215 568 217C573 219 579 222 584 225C589 228 595 232 600 236C605 240 611 244 616 248C621 252 627 256 632 260C637 264 643 268 648 271C653 274 659 277 664 278C669 279 675 278 680 277C685 276 691 274 696 271C701 269 707 265 712 262C717 259 723 256 728 254C733 251 739 250 744 248C749 246 755 245 760 243C765 241 771 239 776 237C781 235 787 232 792 230C797 228 803 225 808 223C813 221 819 219 824 218C829 217 835 217 840 217C845 216 851 217 856 218C861 218 867 219 872 220C877 222 883 223 888 225C893 228 899 230 904 234C909 238 915 243 920 248C925 253 931 260 936 266C941 271 947 277 952 282C957 286 963 289 968 291C973 293 979 293 984 292C989 290 995 287 1000 284C1005 280 1011 275 1016 271C1021 266 1027 260 1032 254C1037 249 1043 242 1048 237C1053 231 1059 225 1064 220C1069 215 1075 210 1080 207C1085 204 1091 202 1096 201C1101 201 1107 202 1112 204C1117 206 1123 210 1128 213C1133 217 1139 222 1144 226C1149 231 1155 235 1160 239C1165 242 1171 245 1176 248C1181 251 1187 253 1192 255C1197 257 1203 259 1208 261C1213 263 1221 265 1224 266" stroke-width="1.7" opacity="0.731"/>
    <path id="l21" class="c c1" d="M-24 265C-21 265 -13 264 -8 264C-3 263 3 263 8 262C13 262 19 261 24 261C29 261 35 261 40 261C45 262 51 262 56 264C61 265 67 266 72 268C77 270 83 273 88 275C93 277 99 279 104 280C109 282 115 283 120 283C125 284 131 283 136 283C141 282 147 280 152 279C157 278 163 276 168 274C173 272 179 270 184 268C189 266 195 264 200 262C205 260 211 257 216 256C221 254 227 252 232 251C237 250 243 250 248 251C253 252 259 254 264 255C269 257 275 260 280 262C285 264 291 267 296 268C301 270 307 271 312 271C317 272 323 273 328 273C333 274 339 274 344 275C349 276 355 277 360 278C365 278 371 279 376 279C381 280 387 280 392 280C397 280 403 279 408 280C413 280 419 280 424 280C429 280 435 281 440 282C445 282 451 283 456 283C461 282 467 282 472 280C477 278 483 276 488 273C493 270 499 266 504 262C509 258 515 254 520 251C525 247 531 244 536 242C541 239 547 237 552 236C557 235 563 235 568 236C573 237 579 238 584 241C589 243 595 246 600 250C605 254 611 259 616 264C621 268 627 274 632 278C637 283 643 288 648 291C653 295 659 299 664 301C669 303 675 304 680 304C685 304 691 302 696 300C701 298 707 295 712 291C717 288 723 284 728 281C733 277 739 274 744 271C749 268 755 266 760 265C765 263 771 262 776 260C781 259 787 258 792 257C797 255 803 254 808 253C813 252 819 252 824 252C829 252 835 252 840 253C845 254 851 255 856 256C861 256 867 257 872 257C877 257 883 256 888 255C893 255 899 255 904 255C909 256 915 258 920 261C925 264 931 268 936 272C941 276 947 281 952 284C957 288 963 291 968 293C973 295 979 295 984 295C989 295 995 294 1000 293C1005 292 1011 291 1016 289C1021 287 1027 285 1032 283C1037 280 1043 276 1048 272C1053 268 1059 262 1064 257C1069 253 1075 247 1080 243C1085 239 1091 236 1096 235C1101 234 1107 234 1112 236C1117 237 1123 241 1128 244C1133 247 1139 251 1144 255C1149 258 1155 262 1160 265C1165 269 1171 272 1176 275C1181 278 1187 281 1192 284C1197 287 1203 290 1208 292C1213 294 1221 296 1224 296" stroke-width="0.9" opacity="0.458"/>
    <path id="l22" class="c c2" d="M-24 290C-21 290 -13 289 -8 289C-3 288 3 288 8 288C13 288 19 288 24 288C29 288 35 289 40 289C45 290 51 292 56 293C61 295 67 296 72 298C77 300 83 302 88 303C93 305 99 306 104 307C109 308 115 308 120 308C125 308 131 307 136 306C141 305 147 303 152 302C157 300 163 298 168 296C173 294 179 292 184 290C189 287 195 285 200 283C205 281 211 279 216 278C221 276 227 275 232 275C237 275 243 275 248 276C253 278 259 280 264 281C269 283 275 286 280 288C285 290 291 292 296 293C301 294 307 295 312 296C317 297 323 297 328 298C333 298 339 299 344 299C349 300 355 301 360 302C365 303 371 304 376 305C381 306 387 307 392 308C397 309 403 309 408 309C413 310 419 310 424 310C429 311 435 311 440 311C445 311 451 311 456 311C461 311 467 310 472 308C477 306 483 304 488 301C493 298 499 293 504 289C509 285 515 280 520 276C525 272 531 267 536 265C541 262 547 260 552 259C557 258 563 258 568 259C573 260 579 262 584 265C589 267 595 270 600 274C605 278 611 282 616 286C621 291 627 296 632 300C637 305 643 309 648 313C653 317 659 320 664 322C669 324 675 325 680 325C685 325 691 323 696 322C701 320 707 317 712 314C717 311 723 308 728 306C733 303 739 301 744 299C749 296 755 294 760 292C765 291 771 289 776 287C781 285 787 284 792 282C797 281 803 280 808 280C813 280 819 280 824 281C829 281 835 282 840 283C845 284 851 285 856 285C861 286 867 285 872 286C877 286 883 285 888 285C893 286 899 286 904 288C909 289 915 292 920 294C925 297 931 301 936 304C941 307 947 310 952 313C957 315 963 316 968 317C973 317 979 316 984 315C989 314 995 312 1000 310C1005 308 1011 305 1016 303C1021 300 1027 298 1032 295C1037 292 1043 289 1048 286C1053 283 1059 279 1064 276C1069 273 1075 269 1080 266C1085 264 1091 262 1096 261C1101 261 1107 262 1112 263C1117 265 1123 269 1128 272C1133 276 1139 280 1144 284C1149 288 1155 292 1160 295C1165 298 1171 301 1176 303C1181 305 1187 307 1192 309C1197 311 1203 313 1208 314C1213 316 1221 318 1224 319" stroke-width="0.9" opacity="0.420"/>
    <path id="l23" class="c c3" d="M-24 316C-21 316 -13 315 -8 315C-3 315 3 315 8 315C13 315 19 315 24 315C29 315 35 315 40 316C45 316 51 317 56 318C61 319 67 321 72 322C77 324 83 326 88 327C93 329 99 330 104 331C109 332 115 333 120 333C125 333 131 333 136 332C141 331 147 330 152 329C157 328 163 327 168 326C173 324 179 323 184 322C189 320 195 319 200 317C205 316 211 314 216 313C221 311 227 310 232 309C237 308 243 308 248 308C253 308 259 309 264 310C269 311 275 313 280 314C285 315 291 316 296 317C301 317 307 317 312 317C317 317 323 317 328 317C333 317 339 318 344 318C349 319 355 320 360 321C365 323 371 324 376 326C381 327 387 328 392 329C397 330 403 331 408 331C413 332 419 333 424 334C429 334 435 336 440 336C445 337 451 338 456 338C461 338 467 337 472 336C477 334 483 331 488 328C493 325 499 320 504 316C509 312 515 308 520 305C525 301 531 298 536 296C541 294 547 293 552 293C557 292 563 293 568 293C573 294 579 296 584 298C589 300 595 302 600 305C605 308 611 312 616 316C621 320 627 325 632 329C637 333 643 338 648 341C653 344 659 347 664 348C669 350 675 350 680 349C685 349 691 347 696 345C701 344 707 341 712 339C717 336 723 334 728 332C733 329 739 327 744 325C749 323 755 321 760 319C765 317 771 315 776 313C781 311 787 309 792 307C797 305 803 304 808 302C813 301 819 300 824 299C829 298 835 298 840 298C845 298 851 298 856 298C861 298 867 299 872 300C877 301 883 302 888 304C893 306 899 308 904 311C909 314 915 318 920 322C925 326 931 331 936 336C941 340 947 346 952 349C957 353 963 356 968 358C973 360 979 360 984 359C989 359 995 356 1000 353C1005 350 1011 346 1016 342C1021 338 1027 334 1032 329C1037 325 1043 320 1048 316C1053 311 1059 306 1064 302C1069 297 1075 292 1080 289C1085 286 1091 283 1096 282C1101 281 1107 282 1112 284C1117 285 1123 289 1128 293C1133 297 1139 302 1144 306C1149 310 1155 314 1160 317C1165 320 1171 322 1176 324C1181 327 1187 328 1192 329C1197 331 1203 333 1208 334C1213 336 1221 339 1224 340" stroke-width="0.9" opacity="0.374"/>
    <path id="l24" class="c c0" d="M-24 343C-21 343 -13 343 -8 343C-3 343 3 343 8 343C13 343 19 343 24 344C29 345 35 345 40 346C45 347 51 349 56 350C61 352 67 354 72 356C77 357 83 359 88 361C93 362 99 363 104 363C109 363 115 363 120 362C125 361 131 360 136 358C141 357 147 355 152 353C157 352 163 350 168 348C173 347 179 345 184 343C189 341 195 339 200 338C205 336 211 334 216 333C221 331 227 330 232 330C237 329 243 329 248 330C253 330 259 331 264 332C269 333 275 334 280 335C285 336 291 337 296 338C301 339 307 341 312 342C317 343 323 345 328 346C333 348 339 350 344 352C349 354 355 356 360 358C365 360 371 363 376 365C381 366 387 368 392 369C397 370 403 371 408 371C413 371 419 371 424 370C429 370 435 368 440 367C445 366 451 365 456 363C461 362 467 360 472 358C477 355 483 352 488 349C493 346 499 342 504 339C509 335 515 331 520 328C525 326 531 323 536 322C541 321 547 320 552 320C557 320 563 321 568 322C573 323 579 324 584 326C589 327 595 328 600 331C605 333 611 335 616 338C621 341 627 345 632 349C637 353 643 357 648 360C653 363 659 367 664 368C669 370 675 371 680 371C685 371 691 370 696 369C701 368 707 366 712 364C717 362 723 360 728 358C733 356 739 353 744 352C749 350 755 348 760 346C765 344 771 343 776 341C781 340 787 339 792 338C797 337 803 336 808 336C813 336 819 337 824 338C829 338 835 340 840 341C845 342 851 343 856 344C861 345 867 345 872 346C877 346 883 345 888 345C893 345 899 344 904 345C909 345 915 346 920 348C925 350 931 353 936 356C941 359 947 362 952 365C957 367 963 369 968 370C973 371 979 371 984 370C989 369 995 367 1000 366C1005 364 1011 361 1016 359C1021 356 1027 353 1032 349C1037 345 1043 340 1048 335C1053 331 1059 325 1064 320C1069 315 1075 310 1080 307C1085 304 1091 303 1096 303C1101 303 1107 306 1112 309C1117 312 1123 318 1128 323C1133 328 1139 334 1144 340C1149 346 1155 352 1160 357C1165 361 1171 366 1176 369C1181 373 1187 376 1192 378C1197 380 1203 381 1208 381C1213 382 1221 381 1224 381" stroke-width="0.9" opacity="0.315"/>
    <path id="l25" class="c c1" d="M-24 368C-21 368 -13 367 -8 367C-3 367 3 367 8 367C13 367 19 367 24 367C29 368 35 368 40 369C45 370 51 371 56 373C61 375 67 377 72 379C77 381 83 383 88 385C93 387 99 389 104 391C109 392 115 393 120 393C125 394 131 394 136 393C141 392 147 391 152 389C157 388 163 386 168 384C173 382 179 380 184 378C189 376 195 373 200 371C205 368 211 365 216 363C221 361 227 359 232 358C237 356 243 355 248 355C253 355 259 355 264 356C269 357 275 358 280 359C285 361 291 363 296 364C301 366 307 367 312 369C317 370 323 371 328 373C333 374 339 376 344 378C349 379 355 381 360 383C365 385 371 387 376 389C381 390 387 392 392 393C397 394 403 395 408 396C413 396 419 396 424 396C429 396 435 396 440 395C445 394 451 393 456 392C461 390 467 388 472 385C477 382 483 379 488 375C493 372 499 368 504 364C509 360 515 356 520 353C525 350 531 347 536 346C541 344 547 344 552 344C557 344 563 345 568 346C573 348 579 350 584 353C589 356 595 359 600 362C605 366 611 370 616 374C621 378 627 382 632 386C637 389 643 393 648 396C653 399 659 401 664 402C669 403 675 403 680 402C685 402 691 400 696 399C701 397 707 395 712 393C717 392 723 390 728 388C733 387 739 385 744 384C749 382 755 381 760 379C765 377 771 375 776 373C781 371 787 369 792 366C797 364 803 362 808 360C813 358 819 356 824 355C829 354 835 352 840 351C845 350 851 349 856 348C861 348 867 347 872 347C877 347 883 347 888 349C893 350 899 353 904 357C909 361 915 366 920 372C925 377 931 384 936 389C941 395 947 401 952 405C957 409 963 412 968 414C973 415 979 416 984 415C989 415 995 413 1000 411C1005 409 1011 406 1016 402C1021 399 1027 395 1032 390C1037 385 1043 380 1048 374C1053 369 1059 363 1064 358C1069 353 1075 347 1080 344C1085 341 1091 339 1096 339C1101 338 1107 340 1112 342C1117 344 1123 348 1128 352C1133 355 1139 359 1144 363C1149 366 1155 369 1160 371C1165 373 1171 375 1176 376C1181 378 1187 379 1192 380C1197 382 1203 383 1208 384C1213 386 1221 387 1224 388" stroke-width="1.7" opacity="0.440"/>
    <use href="#l10" class="flux"/>
    <use href="#l18" class="flux flux2"/>
  </g>

  <!-- Evocation du cycle : anneaux concentriques tres discrets -->
  <g fill="none" stroke="#8fc079">
    <circle class="ring" cx="1000" cy="150" r="66" stroke-width="1.1"/>
    <circle class="ring ring2" cx="1000" cy="150" r="104" stroke-width="0.9"/>
  </g>

  <rect width="1200" height="300" fill="url(#veil)"/>

  <!-- Bloc typographique -->
  <g class="sans">
    <circle class="dot" cx="89" cy="96" r="3.2" fill="#7fb069"/>
    <text x="105" y="101" class="mono" font-size="12" letter-spacing="3.4" fill="#7fb069" opacity="0.85">GREEN IT SOLUTIONS</text>

    <text x="86" y="163" font-size="52" font-weight="600" letter-spacing="-0.8" fill="#eef5ee">Mahel Brossier</text>

    <text x="88" y="196" class="mono" font-size="16" letter-spacing="0.6" fill="#7fb069">helphy<tspan fill="#4d8a60" opacity="0.9"> / github.com/Helphyy</tspan></text>

    <text x="88" y="231" font-size="17" letter-spacing="0.4" fill="#bcd2bf">Infrastructure &#8201;&#183;&#8201; DevOps &#8201;&#183;&#8201; Cybers&#233;curit&#233;</text>

    <text x="88" y="259" class="mono" font-size="12.5" letter-spacing="0.8" fill="#71937a">Proxmox VE &#183; Ceph &#183; Docker &#183; Ansible &#183; Debian &#183; Python &#183; Bash &#183; C</text>
  </g>

  <!-- Filet de base, discret -->
  <rect x="0" y="297" width="1200" height="3" fill="#2d5f43" opacity="0.55"/>
</svg>
