<svg xmlns="http://www.w3.org/2000/svg" width="1200" height="300" viewBox="0 0 1200 300" role="img" aria-label="Dashboard de profil de helphy, Mahel Brossier, infrastructure devops cybersecurite">
<title>helphy // dashboard de profil</title>
<style>

    .f { font-family: "DejaVu Sans", "Segoe UI", Roboto, Helvetica, Arial, sans-serif; }
    .mono { font-family: "DejaVu Sans Mono", "Courier New", monospace; }
    .spark { fill: none; stroke-width: 2; stroke-linecap: round; stroke-linejoin: round;
             stroke-dashoffset: 0; }
    .draw1 { animation: draw 1.6s ease-out 0.1s both; }
    .draw2 { animation: draw 1.6s ease-out 0.25s both; }
    .draw3 { animation: draw 1.6s ease-out 0.4s both; }
    .draw4 { animation: draw 1.6s ease-out 0.55s both; }
    @keyframes draw { from { stroke-dashoffset: var(--len); } to { stroke-dashoffset: 0; } }
    .pulse { animation: pulse 2.4s ease-in-out infinite; transform-origin: center; }
    @keyframes pulse {
      0%, 100% { opacity: 0.55; r: 5; }
      50%      { opacity: 0.05; r: 11; }
    }
    .bar { transform-box: fill-box; transform-origin: left center;
           animation: grow 1.4s cubic-bezier(.2,.8,.3,1) both; }
    @keyframes grow { from { transform: scaleX(0.02); } to { transform: scaleX(1); } }
    @media (prefers-reduced-motion: reduce) {
      .draw1, .draw2, .draw3, .draw4, .pulse, .bar { animation: none; transform: none; }
      .pulse { opacity: 0.35; }
    }

</style>
<defs>
<linearGradient id="g0" x1="0" y1="0" x2="0" y2="1">
<stop offset="0" stop-color="#3d71d9" stop-opacity="0.28"/>
<stop offset="1" stop-color="#3d71d9" stop-opacity="0"/>
</linearGradient>
<linearGradient id="g1" x1="0" y1="0" x2="0" y2="1">
<stop offset="0" stop-color="#6ccf8e" stop-opacity="0.28"/>
<stop offset="1" stop-color="#6ccf8e" stop-opacity="0"/>
</linearGradient>
<linearGradient id="g2" x1="0" y1="0" x2="0" y2="1">
<stop offset="0" stop-color="#ff9830" stop-opacity="0.28"/>
<stop offset="1" stop-color="#ff9830" stop-opacity="0"/>
</linearGradient>
<linearGradient id="g3" x1="0" y1="0" x2="0" y2="1">
<stop offset="0" stop-color="#3d71d9" stop-opacity="0.28"/>
<stop offset="1" stop-color="#3d71d9" stop-opacity="0"/>
</linearGradient>
<clipPath id="clipRound"><rect x="0" y="0" width="1200" height="300" rx="10"/></clipPath>
</defs>
<rect width="1200" height="300" fill="#0b0c0e"/>
<g opacity="0.35">
<line x1="0" y1="0" x2="0" y2="300" stroke="#15171b" stroke-width="1"/>
<line x1="40" y1="0" x2="40" y2="300" stroke="#15171b" stroke-width="1"/>
<line x1="80" y1="0" x2="80" y2="300" stroke="#15171b" stroke-width="1"/>
<line x1="120" y1="0" x2="120" y2="300" stroke="#15171b" stroke-width="1"/>
<line x1="160" y1="0" x2="160" y2="300" stroke="#15171b" stroke-width="1"/>
<line x1="200" y1="0" x2="200" y2="300" stroke="#15171b" stroke-width="1"/>
<line x1="240" y1="0" x2="240" y2="300" stroke="#15171b" stroke-width="1"/>
<line x1="280" y1="0" x2="280" y2="300" stroke="#15171b" stroke-width="1"/>
<line x1="320" y1="0" x2="320" y2="300" stroke="#15171b" stroke-width="1"/>
<line x1="360" y1="0" x2="360" y2="300" stroke="#15171b" stroke-width="1"/>
<line x1="400" y1="0" x2="400" y2="300" stroke="#15171b" stroke-width="1"/>
<line x1="440" y1="0" x2="440" y2="300" stroke="#15171b" stroke-width="1"/>
<line x1="480" y1="0" x2="480" y2="300" stroke="#15171b" stroke-width="1"/>
<line x1="520" y1="0" x2="520" y2="300" stroke="#15171b" stroke-width="1"/>
<line x1="560" y1="0" x2="560" y2="300" stroke="#15171b" stroke-width="1"/>
<line x1="600" y1="0" x2="600" y2="300" stroke="#15171b" stroke-width="1"/>
<line x1="640" y1="0" x2="640" y2="300" stroke="#15171b" stroke-width="1"/>
<line x1="680" y1="0" x2="680" y2="300" stroke="#15171b" stroke-width="1"/>
<line x1="720" y1="0" x2="720" y2="300" stroke="#15171b" stroke-width="1"/>
<line x1="760" y1="0" x2="760" y2="300" stroke="#15171b" stroke-width="1"/>
<line x1="800" y1="0" x2="800" y2="300" stroke="#15171b" stroke-width="1"/>
<line x1="840" y1="0" x2="840" y2="300" stroke="#15171b" stroke-width="1"/>
<line x1="880" y1="0" x2="880" y2="300" stroke="#15171b" stroke-width="1"/>
<line x1="920" y1="0" x2="920" y2="300" stroke="#15171b" stroke-width="1"/>
<line x1="960" y1="0" x2="960" y2="300" stroke="#15171b" stroke-width="1"/>
<line x1="1000" y1="0" x2="1000" y2="300" stroke="#15171b" stroke-width="1"/>
<line x1="1040" y1="0" x2="1040" y2="300" stroke="#15171b" stroke-width="1"/>
<line x1="1080" y1="0" x2="1080" y2="300" stroke="#15171b" stroke-width="1"/>
<line x1="1120" y1="0" x2="1120" y2="300" stroke="#15171b" stroke-width="1"/>
<line x1="1160" y1="0" x2="1160" y2="300" stroke="#15171b" stroke-width="1"/>
<line x1="0" y1="0" x2="1200" y2="0" stroke="#15171b" stroke-width="1"/>
<line x1="0" y1="40" x2="1200" y2="40" stroke="#15171b" stroke-width="1"/>
<line x1="0" y1="80" x2="1200" y2="80" stroke="#15171b" stroke-width="1"/>
<line x1="0" y1="120" x2="1200" y2="120" stroke="#15171b" stroke-width="1"/>
<line x1="0" y1="160" x2="1200" y2="160" stroke="#15171b" stroke-width="1"/>
<line x1="0" y1="200" x2="1200" y2="200" stroke="#15171b" stroke-width="1"/>
<line x1="0" y1="240" x2="1200" y2="240" stroke="#15171b" stroke-width="1"/>
<line x1="0" y1="280" x2="1200" y2="280" stroke="#15171b" stroke-width="1"/>
</g>
<line x1="0" y1="64" x2="1200" y2="64" stroke="#2a2f36" stroke-width="1"/>
<text class="f" x="24" y="42" fill="#d8dade" font-size="27" font-weight="700" letter-spacing="0.5">helphy</text>
<circle class="pulse" cx="152" cy="34" r="5" fill="#6ccf8e"/>
<circle cx="152" cy="34" r="4" fill="#6ccf8e"/>
<text class="mono" x="164" y="38" fill="#6ccf8e" font-size="12" letter-spacing="1.2">ONLINE</text>
<text class="f" x="230" y="38" fill="#7b8794" font-size="13">Mahel Brossier</text>
<text class="mono" x="1176" y="38" text-anchor="end" fill="#7b8794" font-size="12" letter-spacing="0.8">github.com/Helphyy</text>
<g>
<rect x="24" y="76" width="196" height="150" rx="4" fill="#181b1f" stroke="#2a2f36"/>
<rect x="24" y="76" width="196" height="3" rx="1.5" fill="#3d71d9" opacity="0.9"/>
<text class="mono" x="38" y="102" fill="#7b8794" font-size="11" letter-spacing="1.4">DOMAINES</text>
<text class="f" x="38" y="150" fill="#d8dade" font-size="44" font-weight="700">3</text>
<text class="f" x="38" y="168" fill="#7b8794" font-size="11.5">infra / devops / cyber</text>
<path d="M 38.0 209.4 L 44.7 204.4 L 51.4 199.1 L 58.2 194.1 L 64.9 190.9 L 71.6 185.9 L 78.3 185.5 L 85.0 190.0 L 91.8 195.7 L 98.5 196.8 L 105.2 196.3 L 111.9 194.9 L 118.6 196.7 L 125.4 194.1 L 132.1 189.8 L 138.8 184.9 L 145.5 182.7 L 152.2 185.4 L 159.0 185.1 L 165.7 185.1 L 172.4 184.5 L 179.1 184.6 L 185.8 184.6 L 192.6 182.6 L 199.3 184.1 L 206.0 184.9 L 206.0 216 L 38.0 216 Z" fill="url(#g0)" opacity="0.9"/>
<path class="spark draw1" style="--len:186px; stroke-dasharray:186;" d="M 38.0 209.4 L 44.7 204.4 L 51.4 199.1 L 58.2 194.1 L 64.9 190.9 L 71.6 185.9 L 78.3 185.5 L 85.0 190.0 L 91.8 195.7 L 98.5 196.8 L 105.2 196.3 L 111.9 194.9 L 118.6 196.7 L 125.4 194.1 L 132.1 189.8 L 138.8 184.9 L 145.5 182.7 L 152.2 185.4 L 159.0 185.1 L 165.7 185.1 L 172.4 184.5 L 179.1 184.6 L 185.8 184.6 L 192.6 182.6 L 199.3 184.1 L 206.0 184.9" stroke="#3d71d9"/>
<circle cx="206.0" cy="184.9" r="2.6" fill="#3d71d9"/>
</g>
<g>
<rect x="236" y="76" width="196" height="150" rx="4" fill="#181b1f" stroke="#2a2f36"/>
<rect x="236" y="76" width="196" height="3" rx="1.5" fill="#6ccf8e" opacity="0.9"/>
<text class="mono" x="250" y="102" fill="#7b8794" font-size="11" letter-spacing="1.4">STACK CORE</text>
<text class="f" x="250" y="150" fill="#d8dade" font-size="44" font-weight="700">8</text>
<text class="f" x="250" y="168" fill="#7b8794" font-size="11.5">outils au quotidien</text>
<path d="M 250.0 208.8 L 256.7 209.4 L 263.4 204.1 L 270.2 203.9 L 276.9 199.8 L 283.6 203.1 L 290.3 201.8 L 297.0 204.7 L 303.8 202.6 L 310.5 200.8 L 317.2 194.0 L 323.9 189.3 L 330.6 185.4 L 337.4 184.0 L 344.1 185.2 L 350.8 187.5 L 357.5 187.5 L 364.2 184.7 L 371.0 182.6 L 377.7 183.8 L 384.4 183.8 L 391.1 186.8 L 397.8 186.0 L 404.6 186.0 L 411.3 185.4 L 418.0 186.1 L 418.0 216 L 250.0 216 Z" fill="url(#g1)" opacity="0.9"/>
<path class="spark draw2" style="--len:183px; stroke-dasharray:183;" d="M 250.0 208.8 L 256.7 209.4 L 263.4 204.1 L 270.2 203.9 L 276.9 199.8 L 283.6 203.1 L 290.3 201.8 L 297.0 204.7 L 303.8 202.6 L 310.5 200.8 L 317.2 194.0 L 323.9 189.3 L 330.6 185.4 L 337.4 184.0 L 344.1 185.2 L 350.8 187.5 L 357.5 187.5 L 364.2 184.7 L 371.0 182.6 L 377.7 183.8 L 384.4 183.8 L 391.1 186.8 L 397.8 186.0 L 404.6 186.0 L 411.3 185.4 L 418.0 186.1" stroke="#6ccf8e"/>
<circle cx="418.0" cy="186.1" r="2.6" fill="#6ccf8e"/>
</g>
<g>
<rect x="448" y="76" width="196" height="150" rx="4" fill="#181b1f" stroke="#2a2f36"/>
<rect x="448" y="76" width="196" height="3" rx="1.5" fill="#ff9830" opacity="0.9"/>
<text class="mono" x="462" y="102" fill="#7b8794" font-size="11" letter-spacing="1.4">LANGAGES</text>
<text class="f" x="462" y="150" fill="#d8dade" font-size="44" font-weight="700">3</text>
<text class="f" x="462" y="168" fill="#7b8794" font-size="11.5">Python / Bash / C</text>
<path d="M 462.0 182.6 L 468.7 186.8 L 475.4 190.4 L 482.2 193.6 L 488.9 199.0 L 495.6 208.1 L 502.3 206.9 L 509.0 206.9 L 515.8 202.4 L 522.5 199.4 L 529.2 197.2 L 535.9 198.4 L 542.6 203.2 L 549.4 203.3 L 556.1 195.9 L 562.8 194.3 L 569.5 196.3 L 576.2 199.3 L 583.0 197.1 L 589.7 194.9 L 596.4 202.7 L 603.1 209.4 L 609.8 203.6 L 616.6 199.8 L 623.3 199.8 L 630.0 206.0 L 630.0 216 L 462.0 216 Z" fill="url(#g2)" opacity="0.9"/>
<path class="spark draw3" style="--len:200px; stroke-dasharray:200;" d="M 462.0 182.6 L 468.7 186.8 L 475.4 190.4 L 482.2 193.6 L 488.9 199.0 L 495.6 208.1 L 502.3 206.9 L 509.0 206.9 L 515.8 202.4 L 522.5 199.4 L 529.2 197.2 L 535.9 198.4 L 542.6 203.2 L 549.4 203.3 L 556.1 195.9 L 562.8 194.3 L 569.5 196.3 L 576.2 199.3 L 583.0 197.1 L 589.7 194.9 L 596.4 202.7 L 603.1 209.4 L 609.8 203.6 L 616.6 199.8 L 623.3 199.8 L 630.0 206.0" stroke="#ff9830"/>
<circle cx="630.0" cy="206.0" r="2.6" fill="#ff9830"/>
</g>
<g>
<rect x="660" y="76" width="196" height="150" rx="4" fill="#181b1f" stroke="#2a2f36"/>
<rect x="660" y="76" width="196" height="3" rx="1.5" fill="#3d71d9" opacity="0.9"/>
<text class="mono" x="674" y="102" fill="#7b8794" font-size="11" letter-spacing="1.4">SOCLE SYSTEME</text>
<text class="f" x="674" y="144" fill="#d8dade" font-size="26" font-weight="700">DEBIAN</text>
<text class="f" x="674" y="168" fill="#7b8794" font-size="11.5">base des deploiements</text>
<path d="M 674.0 184.5 L 680.7 182.6 L 687.4 184.7 L 694.2 184.4 L 700.9 187.2 L 707.6 185.1 L 714.3 187.9 L 721.0 190.9 L 727.8 197.0 L 734.5 201.6 L 741.2 202.8 L 747.9 202.1 L 754.6 195.7 L 761.4 190.5 L 768.1 187.7 L 774.8 188.0 L 781.5 188.8 L 788.2 190.3 L 795.0 192.7 L 801.7 199.7 L 808.4 204.6 L 815.1 209.4 L 821.8 208.1 L 828.6 201.5 L 835.3 194.2 L 842.0 189.3 L 842.0 216 L 674.0 216 Z" fill="url(#g3)" opacity="0.9"/>
<path class="spark draw4" style="--len:196px; stroke-dasharray:196;" d="M 674.0 184.5 L 680.7 182.6 L 687.4 184.7 L 694.2 184.4 L 700.9 187.2 L 707.6 185.1 L 714.3 187.9 L 721.0 190.9 L 727.8 197.0 L 734.5 201.6 L 741.2 202.8 L 747.9 202.1 L 754.6 195.7 L 761.4 190.5 L 768.1 187.7 L 774.8 188.0 L 781.5 188.8 L 788.2 190.3 L 795.0 192.7 L 801.7 199.7 L 808.4 204.6 L 815.1 209.4 L 821.8 208.1 L 828.6 201.5 L 835.3 194.2 L 842.0 189.3" stroke="#3d71d9"/>
<circle cx="842.0" cy="189.3" r="2.6" fill="#3d71d9"/>
</g>
<rect x="872" y="76" width="304" height="150" rx="4" fill="#181b1f" stroke="#2a2f36"/>
<rect x="872" y="76" width="304" height="3" rx="1.5" fill="#6ccf8e" opacity="0.9"/>
<text class="mono" x="888" y="102" fill="#7b8794" font-size="11" letter-spacing="1.4">ORDRE DE PRIORITE</text>
<text class="f" x="888" y="122" fill="#d8dade" font-size="12.5" font-weight="600">infrastructure</text>
<text class="f" x="1160" y="122" text-anchor="end" fill="#7b8794" font-size="11">Proxmox VE, Ceph</text>
<rect x="888" y="130" width="272" height="6" rx="3" fill="#22262c"/>
<rect class="bar" x="888" y="130" width="272.0" height="6" rx="3" fill="#3d71d9" style="animation-delay:0.30s"/>
<text class="f" x="888" y="156" fill="#d8dade" font-size="12.5" font-weight="600">devops</text>
<text class="f" x="1160" y="156" text-anchor="end" fill="#7b8794" font-size="11">Docker, Ansible</text>
<rect x="888" y="164" width="272" height="6" rx="3" fill="#22262c"/>
<rect class="bar" x="888" y="164" width="195.8" height="6" rx="3" fill="#6ccf8e" style="animation-delay:0.45s"/>
<text class="f" x="888" y="190" fill="#d8dade" font-size="12.5" font-weight="600">cybersecurite</text>
<text class="f" x="1160" y="190" text-anchor="end" fill="#7b8794" font-size="11">audit, durcissement</text>
<rect x="888" y="198" width="272" height="6" rx="3" fill="#22262c"/>
<rect class="bar" x="888" y="198" width="130.6" height="6" rx="3" fill="#ff9830" style="animation-delay:0.60s"/>
<rect x="24" y="240" width="1152" height="36" rx="4" fill="#131519" stroke="#2a2f36"/>
<circle cx="42" cy="258" r="3.5" fill="#6ccf8e"/>
<text class="mono" x="54" y="262" fill="#d8dade" font-size="12" letter-spacing="0.6">Green IT Solutions</text>
<line x1="194" y1="249" x2="194" y2="267" stroke="#2a2f36"/>
<text class="mono" x="210" y="262" fill="#7b8794" font-size="12">infra as code . clusters . automatisation</text>
<text class="mono" x="1160" y="262" text-anchor="end" fill="#7b8794" font-size="12" letter-spacing="0.6">Debian . Proxmox VE . Ceph . Docker . Ansible . Python . Bash . C</text>
</svg>
